<svg version="1.1" id="Layer_1" xmlns="http://www.w3.org/2000/svg" xmlns:xlink="http://www.w3.org/1999/xlink" x="0px" y="0px"
	 width="456" height="456" viewBox="0 0 456 456" enable-background="new 0 0 456 456" xml:space="preserve">
<rect x="0" y="0" width="456" height="456" fill="#FFF" opacity="1" />
<path fill="#AA0302" opacity="1.000000" stroke="none" 
	d="
M281.414368,186.980453 
	C282.964508,188.552460 284.514618,190.124451 286.211243,192.292435 
	C269.265778,222.716461 252.173828,252.544510 234.971313,282.565460 
	C244.639374,283.785034 244.639160,283.784912 248.863815,276.431732 
	C250.190277,274.122986 251.513718,271.812500 252.846100,269.507172 
	C266.413055,246.033020 279.981537,222.559784 293.549622,199.086288 
	C295.109131,200.704239 296.668640,202.322174 298.475708,204.531174 
	C283.979553,230.844101 269.235840,256.565979 254.406067,282.437958 
	C258.922760,283.923676 260.950714,282.457001 262.814575,279.188843 
	C276.171448,255.768570 289.725525,232.460770 303.216919,209.117218 
	C309.842010,215.650101 316.467102,222.182968 322.336487,227.970657 
	C290.921051,259.928802 259.846924,291.539764 229.778961,322.127167 
	C197.937469,290.867859 166.356171,259.863953 134.540878,228.630356 
	C141.222076,222.011963 147.598602,215.695343 154.462494,209.337128 
	C169.331833,234.159927 183.713837,259.024353 198.439209,284.482452 
	C219.873993,247.348206 240.888504,210.942047 262.311737,173.827820 
	C255.018692,173.827820 248.700668,174.067245 242.412582,173.736938 
	C238.712357,173.542572 236.805832,174.918152 235.015549,178.056671 
	C221.815002,201.198318 208.421646,224.229980 195.078918,247.290451 
	C194.151962,248.892532 193.144196,250.447861 191.728638,252.748901 
	C181.405075,234.942062 171.647491,218.111450 161.889923,201.280853 
	C182.816437,180.571457 203.754333,159.873489 224.644089,139.127060 
	C226.047867,137.732941 227.087997,135.972626 228.590454,133.997101 
	C242.197800,147.616440 254.966644,160.396530 267.893982,173.788788 
	C247.395477,210.393219 226.738464,246.385498 205.703644,283.036041 
	C211.951797,283.036041 217.129974,283.309814 222.252151,282.893921 
	C224.154739,282.739441 226.531204,281.400269 227.637283,279.849426 
	C230.330750,276.072906 232.402466,271.853638 234.732971,267.817505 
	C250.292206,240.871109 265.853638,213.925995 281.414368,186.980453 
z"/>
<path fill="#FDD201" opacity="1.000000" stroke="none" 
	d="
M161.606598,201.073944 
	C171.647491,218.111450 181.405075,234.942062 191.728638,252.748901 
	C193.144196,250.447861 194.151962,248.892532 195.078918,247.290451 
	C208.421646,224.229980 221.815002,201.198318 235.015549,178.056671 
	C236.805832,174.918152 238.712357,173.542572 242.412582,173.736938 
	C248.700668,174.067245 255.018692,173.827820 262.311737,173.827820 
	C240.888504,210.942047 219.873993,247.348206 198.439209,284.482452 
	C183.713837,259.024353 169.331833,234.159927 154.707901,209.075531 
	C147.974640,197.360611 141.483307,185.865646 134.987198,174.362213 
	C142.127625,172.353378 146.686920,174.275299 149.838058,181.090668 
	C153.023438,187.980087 157.443863,194.298508 161.606598,201.073944 
z"/>
<path fill="#FDD201" opacity="1.000000" stroke="none" 
	d="
M281.534546,186.628326 
	C265.853638,213.925995 250.292206,240.871109 234.732971,267.817505 
	C232.402466,271.853638 230.330750,276.072906 227.637283,279.849426 
	C226.531204,281.400269 224.154739,282.739441 222.252151,282.893921 
	C217.129974,283.309814 211.951797,283.036041 205.703644,283.036041 
	C226.738464,246.385498 247.395477,210.393219 268.120850,174.087524 
	C274.766907,173.774094 281.344574,173.774094 288.587646,173.774094 
	C286.213501,178.055359 283.934113,182.165771 281.534546,186.628326 
z"/>
<path fill="#FBCF02" opacity="1.000000" stroke="none" 
	d="
M293.639832,198.785217 
	C279.981537,222.559784 266.413055,246.033020 252.846100,269.507172 
	C251.513718,271.812500 250.190277,274.122986 248.863815,276.431732 
	C244.639160,283.784912 244.639374,283.785034 234.971313,282.565460 
	C252.173828,252.544510 269.265778,222.716461 286.486450,192.540131 
	C289.130402,187.937698 291.677582,183.702042 294.153717,179.425217 
	C298.228027,172.387939 298.208618,172.376694 307.620605,173.967407 
	C302.929474,182.247253 298.329773,190.365692 293.639832,198.785217 
z"/>
<path fill="#F8CB05" opacity="1.000000" stroke="none" 
	d="
M303.261383,208.786316 
	C289.725525,232.460770 276.171448,255.768570 262.814575,279.188843 
	C260.950714,282.457001 258.922760,283.923676 254.406067,282.437958 
	C269.235840,256.565979 283.979553,230.844101 298.832886,204.756332 
	C304.203003,195.410904 309.649292,186.532684 314.629822,177.400436 
	C316.538086,173.901459 318.704956,172.462753 323.232513,173.815613 
	C316.545441,185.440186 309.925659,196.947800 303.261383,208.786316 
z"/>
</svg>