<svg version="1.1" id="Layer_1" xmlns="http://www.w3.org/2000/svg" xmlns:xlink="http://www.w3.org/1999/xlink" x="0px" y="0px"
	 width="456" height="456" viewBox="0 0 456 456" enable-background="new 0 0 456 456" xml:space="preserve">
<path fill="#AB0201" opacity="1.000000" stroke="none" 
	d="
M382.013733,158.188248 
	C386.224091,162.389328 390.434479,166.590408 394.799957,171.330826 
	C394.669952,172.470871 394.424347,173.094269 394.094086,173.669022 
	C363.169037,227.488739 332.234894,281.303253 301.309570,335.122803 
	C297.211517,342.254700 293.155884,349.410980 288.698303,357.226135 
	C293.380066,357.226135 297.073608,357.554260 300.663696,357.087067 
	C302.447083,356.855042 304.748596,355.572388 305.616547,354.071533 
	C329.356293,313.020966 352.909546,271.862610 376.567200,230.764435 
	C386.018127,214.346298 395.642273,198.027893 405.187561,181.664108 
	C421.088135,197.536438 436.988739,213.408752 453.240417,229.631531 
	C378.250610,304.149200 303.413727,378.514862 228.290680,453.164886 
	C153.825562,378.227081 79.448586,303.377991 5.542558,229.002823 
	C21.024023,213.175919 36.371082,197.486420 52.246906,181.762360 
	C53.095207,182.110336 53.479698,182.455368 53.725086,182.880661 
	C86.654602,239.952423 119.571091,297.031708 152.505264,354.100769 
	C153.679413,356.135315 155.023697,358.071625 156.604416,360.548462 
	C207.322998,272.700104 257.605347,185.607315 308.248627,97.889328 
	C289.772217,97.889328 272.286072,98.041634 254.806274,97.776337 
	C250.718338,97.714287 248.658905,99.161018 246.708786,102.549294 
	C218.076401,152.297134 189.317032,201.971909 160.585968,251.662933 
	C154.204697,262.699493 147.816071,273.731812 141.122833,285.298309 
	C140.110062,283.797058 139.437912,282.903778 138.872391,281.947449 
	C124.304764,257.311462 109.706261,232.693634 95.205673,208.018265 
	C86.611694,193.394043 78.175278,178.677231 69.668022,164.002045 
	C109.685066,124.193214 149.743561,84.425903 189.695679,44.552017 
	C202.887817,31.385700 215.805466,17.944319 228.117294,5.375313 
	C259.781281,36.511223 290.834625,67.046700 322.012817,98.180084 
	C321.920044,99.227493 321.729156,99.692368 321.480957,100.124313 
	C277.376678,176.882553 233.267105,253.637787 189.161652,330.395386 
	C184.149597,339.117950 179.159897,347.853394 173.792847,357.223602 
	C188.730820,357.223602 202.715363,357.075867 216.693069,357.320404 
	C220.515076,357.387268 222.650879,356.234680 224.563309,352.892517 
	C258.613251,293.386047 292.765961,233.938324 326.948151,174.507645 
	C335.652618,159.373718 344.535248,144.342255 353.335999,129.263702 
	C357.403778,133.329575 361.471527,137.395462 365.707520,142.019501 
	C324.921967,213.902527 283.968231,285.227386 242.628586,357.224304 
	C250.299484,357.224304 256.963593,357.452881 263.593506,357.077545 
	C265.453583,356.972198 267.990692,355.540497 268.905945,353.958557 
	C298.238495,303.259216 327.388000,252.454056 356.618988,201.695862 
	C364.998962,187.144409 373.544250,172.688156 382.013733,158.188248 
z"/>
<path fill="#FED500" opacity="1.000000" stroke="none" 
	d="
M69.421227,163.792480 
	C78.175278,178.677231 86.611694,193.394043 95.205673,208.018265 
	C109.706261,232.693634 124.304764,257.311462 138.872391,281.947449 
	C139.437912,282.903778 140.110062,283.797058 141.122833,285.298309 
	C147.816071,273.731812 154.204697,262.699493 160.585968,251.662933 
	C189.317032,201.971909 218.076401,152.297134 246.708786,102.549294 
	C248.658905,99.161018 250.718338,97.714287 254.806274,97.776337 
	C272.286072,98.041634 289.772217,97.889328 308.248627,97.889328 
	C257.605347,185.607315 207.322998,272.700104 156.604416,360.548462 
	C155.023697,358.071625 153.679413,356.135315 152.505264,354.100769 
	C119.571091,297.031708 86.654602,239.952423 53.725086,182.880661 
	C53.479698,182.455368 53.095207,182.110336 52.501602,181.486053 
	C45.125973,168.663177 38.079987,156.050293 30.908508,143.509171 
	C22.346487,128.536362 13.677020,113.624985 4.599043,97.898666 
	C13.097652,97.898666 20.829018,97.738724 28.540854,98.055000 
	C29.836830,98.108147 31.406794,100.007614 32.244907,101.414536 
	C44.157650,121.412102 55.964798,141.472565 67.804390,161.513733 
	C68.224594,162.225006 68.716141,162.894135 69.421227,163.792480 
z"/>
<path fill="#FED500" opacity="1.000000" stroke="none" 
	d="
M353.426819,128.941803 
	C344.535248,144.342255 335.652618,159.373718 326.948151,174.507645 
	C292.765961,233.938324 258.613251,293.386047 224.563309,352.892517 
	C222.650879,356.234680 220.515076,357.387268 216.693069,357.320404 
	C202.715363,357.075867 188.730820,357.223602 173.792847,357.223602 
	C179.159897,347.853394 184.149597,339.117950 189.161652,330.395386 
	C233.267105,253.637787 277.376678,176.882553 321.480957,100.124313 
	C321.729156,99.692368 321.920044,99.227493 322.252991,98.437561 
	C323.257721,97.736107 324.145813,97.064171 325.036743,97.060371 
	C340.178192,96.995773 355.320007,97.014061 371.295593,97.014061 
	C365.173157,107.898598 359.345398,118.259254 353.426819,128.941803 
z"/>
<path fill="#FED401" opacity="1.000000" stroke="none" 
	d="
M382.073914,157.888794 
	C373.544250,172.688156 364.998962,187.144409 356.618988,201.695862 
	C327.388000,252.454056 298.238495,303.259216 268.905945,353.958557 
	C267.990692,355.540497 265.453583,356.972198 263.593506,357.077545 
	C256.963593,357.452881 250.299484,357.224304 242.628586,357.224304 
	C283.968231,285.227386 324.921967,213.902527 365.960144,142.229553 
	C374.061615,128.114288 382.164795,114.395958 390.021332,100.537796 
	C391.550262,97.840866 393.211578,96.829475 396.262939,96.935135 
	C402.707703,97.158295 409.165558,97.003067 416.614075,97.003067 
	C404.856995,117.661949 393.495544,137.625641 382.073914,157.888794 
z"/>
<path fill="#FED302" opacity="1.000000" stroke="none" 
	d="
M405.336731,181.325363 
	C395.642273,198.027893 386.018127,214.346298 376.567200,230.764435 
	C352.909546,271.862610 329.356293,313.020966 305.616547,354.071533 
	C304.748596,355.572388 302.447083,356.855042 300.663696,357.087067 
	C297.073608,357.554260 293.380066,357.226135 288.698303,357.226135 
	C293.155884,349.410980 297.211517,342.254700 301.309570,335.122803 
	C332.234894,281.303253 363.169037,227.488739 394.094086,173.669022 
	C394.424347,173.094269 394.669952,172.470871 395.075073,171.547394 
	C407.539673,149.923004 419.902435,128.631866 432.221191,107.315262 
	C438.293915,96.806931 438.257080,96.784012 450.487610,97.009521 
	C451.147247,97.021683 451.805664,97.098236 453.109283,97.190384 
	C452.153046,99.016884 451.394409,100.594048 450.524963,102.107597 
	C436.186615,127.068764 421.830872,152.019958 407.494934,176.982513 
	C406.752472,178.275406 406.152344,179.650055 405.336731,181.325363 
z"/>
</svg>